<svg xmlns="http://www.w3.org/2000/svg" width="16" height="16" viewBox="0 0 16 16"><defs><style>.a{fill:none;}.b{fill:#e10;}</style></defs><path class="a" d="M0,0H16V16H0Z"/><path class="b" d="M13.729,4.314v7.623A2.746,2.746,0,0,1,10.9,14.589a2.746,2.746,0,0,1-2.833-2.652V3.652A1.717,1.717,0,0,1,9.833,1.994,1.717,1.717,0,0,1,11.6,3.652v6.96a.71.71,0,0,1-1.417,0v-6.3H9.125v6.3a1.775,1.775,0,0,0,3.542,0V3.652A2.746,2.746,0,0,0,9.833,1,2.746,2.746,0,0,0,7,3.652v8.286a3.775,3.775,0,0,0,3.9,3.646,3.775,3.775,0,0,0,3.9-3.646V4.314Z" transform="translate(-2.58 -0.292)"/></svg>